<svg xmlns="http://www.w3.org/2000/svg" width="500" height="500" viewBox="0 0 500 500">
<g>
<path d="M 330.26 317.00 L 329.70 333.00 L 310.50 332.97 L 290.50 302.74 C279.50,286.11 269.71,271.63 268.75,270.56 C267.79,269.50 267.00,268.26 267.00,267.81 C267.00,267.37 266.49,267.00 265.86,267.00 C265.05,267.00 264.87,269.17 265.23,274.25 C265.52,278.24 265.47,283.40 265.13,285.72 L 264.50 289.93 L 256.02 282.47 C251.35,278.36 247.19,275.00 246.77,275.00 C246.35,275.00 246.00,265.55 246.00,254.00 L 246.00 233.00 L 256.75 233.05 L 267.50 233.10 L 286.50 262.10 C296.95,278.05 306.50,292.31 307.72,293.80 L 309.94 296.50 L 309.97 264.75 L 310.00 233.00 L 329.69 233.00 L 330.25 267.00 C330.56,285.69 330.56,308.19 330.26,317.00 ZM 222.95 332.11 C218.05,333.97 206.33,335.30 202.50,334.43 C201.40,334.18 198.02,333.48 195.00,332.88 C184.06,330.69 169.12,322.82 169.03,319.20 C169.00,317.71 176.90,303.00 177.74,303.00 C178.04,303.00 180.23,304.58 182.59,306.52 C191.69,313.97 206.40,318.33 214.80,316.06 C222.48,313.98 225.60,308.57 222.67,302.43 C220.68,298.25 215.22,295.38 201.00,291.00 C187.60,286.88 181.92,283.97 176.95,278.72 C166.99,268.17 166.54,251.26 175.81,236.64 C181.80,227.19 195.63,213.51 210.25,202.57 C216.80,197.67 214.30,200.53 205.52,207.99 C198.07,214.31 197.16,215.43 198.08,217.16 C199.11,219.08 199.23,219.06 203.32,216.54 C205.62,215.13 212.23,211.50 218.00,208.48 C234.83,199.68 240.90,195.76 247.20,189.61 C249.24,187.62 251.26,186.02 251.70,186.04 C252.14,186.06 240.74,197.64 226.37,211.79 C204.81,233.00 199.77,238.49 197.53,243.19 C194.11,250.37 193.39,255.71 195.02,261.75 C197.76,271.84 201.26,276.13 215.46,286.77 C233.76,300.48 237.00,304.68 236.99,314.71 C236.98,323.33 232.97,328.30 222.95,332.11 ZM 239.41 248.53 C237.26,252.27 235.05,255.42 234.50,255.53 C233.95,255.64 230.91,254.33 227.75,252.62 C222.07,249.53 222.01,249.45 222.02,245.00 C222.03,238.88 224.33,232.57 226.65,232.24 C228.97,231.91 240.98,237.94 242.32,240.11 C243.08,241.34 242.37,243.38 239.41,248.53 Z" fill="rgb(28,86,128)"/>
<path d="M 236.85 347.95 C219.03,350.85 199.22,347.55 181.50,338.74 C174.02,335.02 159.00,325.23 159.00,324.07 C159.00,323.60 164.06,325.77 170.25,328.90 C184.43,336.07 195.96,339.00 209.95,339.00 C229.75,339.00 241.07,331.62 243.48,317.16 C245.21,306.80 238.99,297.58 221.20,284.15 C208.41,274.50 204.71,270.73 201.87,264.50 C196.98,253.78 201.19,243.42 216.62,228.13 C222.38,222.42 227.32,217.98 227.59,218.26 C227.87,218.53 226.73,220.77 225.07,223.24 C220.01,230.74 218.00,236.53 218.00,243.62 C218.00,255.20 222.32,261.56 238.85,274.31 C262.71,292.71 268.02,299.68 268.79,313.65 C269.18,320.77 268.93,322.48 266.76,327.21 C265.39,330.19 262.53,334.34 260.39,336.42 C255.15,341.53 244.60,346.70 236.85,347.95 Z" fill="rgb(206,156,77)"/>
<path d="M 208.76 229.39 C212.89,225.12 218.54,219.49 226.37,211.79 C240.74,197.64 252.14,186.06 251.70,186.04 C251.26,186.02 249.24,187.62 247.20,189.61 C240.90,195.76 234.83,199.68 218.00,208.48 C212.23,211.50 205.62,215.13 203.32,216.54 C199.23,219.06 199.11,219.08 198.08,217.16 C197.16,215.43 198.07,214.31 205.52,207.99 C214.30,200.53 216.80,197.67 210.25,202.57 C208.07,204.20 205.92,205.89 203.80,207.61 C208.84,203.26 214.69,198.35 221.50,192.71 C229.49,186.09 250.69,165.00 249.35,165.00 C249.07,165.00 250.15,163.31 251.77,161.25 C256.21,155.59 257.12,153.52 255.75,152.15 C255.12,151.52 254.13,151.00 253.55,151.00 C252.97,150.99 251.18,149.93 249.56,148.64 L 246.62 146.28 L 253.56 142.99 C257.38,141.17 264.95,137.51 270.38,134.84 C275.82,132.18 280.66,130.00 281.13,130.00 C282.10,130.00 282.10,144.36 281.13,159.23 L 280.50 168.96 L 276.00 165.40 C272.02,162.24 271.39,162.02 270.50,163.49 C269.95,164.41 266.58,169.05 263.00,173.81 C256.36,182.65 244.86,194.53 216.32,222.00 C213.35,224.86 210.86,227.29 208.76,229.39 ZM 186.65 223.36 C182.04,228.18 178.27,232.76 175.81,236.64 C175.52,237.10 175.24,237.56 174.96,238.03 C177.52,233.54 181.10,228.99 186.65,223.36 ZM 170.15 249.89 C167.62,260.64 169.92,271.26 176.94,278.71 C169.94,271.29 167.48,260.61 170.15,249.89 Z" fill="rgb(73,175,189)"/>
<path d="M 0.00 250.00 L 0.00 0.00 L 250.00 0.00 L 500.00 0.00 L 500.00 250.00 L 500.00 500.00 L 250.00 500.00 L 0.00 500.00 L 0.00 250.00 ZM 236.85 347.95 C244.60,346.70 255.15,341.53 260.39,336.42 C262.53,334.34 265.39,330.19 266.76,327.21 C268.93,322.48 269.18,320.77 268.79,313.65 C268.02,299.68 262.71,292.71 238.85,274.31 C222.32,261.56 218.00,255.20 218.00,243.62 C218.00,236.53 220.01,230.74 225.07,223.24 C226.73,220.77 227.87,218.53 227.59,218.26 C227.32,217.98 222.38,222.42 216.62,228.13 C201.19,243.42 196.98,253.78 201.87,264.50 C204.71,270.73 208.41,274.50 221.20,284.15 C238.99,297.58 245.21,306.80 243.48,317.16 C241.07,331.62 229.75,339.00 209.95,339.00 C195.96,339.00 184.43,336.07 170.25,328.90 C164.06,325.77 159.00,323.60 159.00,324.07 C159.00,325.23 174.02,335.02 181.50,338.74 C199.22,347.55 219.03,350.85 236.85,347.95 ZM 222.95 332.11 C232.97,328.30 236.98,323.33 236.99,314.71 C237.00,304.68 233.76,300.48 215.46,286.77 C201.26,276.13 197.76,271.84 195.02,261.75 C193.39,255.72 194.11,250.38 197.52,243.19 C199.67,238.65 203.47,234.37 216.32,222.00 C244.86,194.53 256.36,182.65 263.00,173.81 C266.58,169.05 269.95,164.41 270.50,163.49 C271.39,162.02 272.02,162.24 276.00,165.40 L 280.50 168.96 L 281.13 159.23 C282.10,144.36 282.10,130.00 281.13,130.00 C280.66,130.00 275.82,132.18 270.38,134.84 C264.95,137.51 257.38,141.17 253.56,142.99 L 246.62 146.28 L 249.56 148.64 C251.18,149.93 252.97,150.99 253.55,151.00 C254.13,151.00 255.12,151.52 255.75,152.15 C257.12,153.52 256.21,155.59 251.77,161.25 C250.15,163.31 249.07,165.00 249.35,165.00 C250.69,165.00 229.49,186.09 221.50,192.71 C184.28,223.53 175.86,232.58 171.00,247.01 C167.07,258.67 169.32,270.63 176.95,278.72 C181.92,283.97 187.60,286.88 201.00,291.00 C215.22,295.38 220.68,298.25 222.67,302.43 C225.60,308.57 222.48,313.98 214.80,316.06 C206.40,318.33 191.69,313.97 182.59,306.52 C180.23,304.58 178.04,303.00 177.74,303.00 C176.90,303.00 169.00,317.71 169.03,319.20 C169.12,322.82 184.06,330.69 195.00,332.88 C198.02,333.48 201.40,334.18 202.50,334.43 C206.33,335.30 218.05,333.97 222.95,332.11 ZM 330.26 317.00 C330.56,308.19 330.56,285.69 330.25,267.00 L 329.69 233.00 L 319.85 233.00 L 310.00 233.00 L 309.97 264.75 L 309.94 296.50 L 307.72 293.80 C306.50,292.31 296.95,278.05 286.50,262.10 L 267.50 233.10 L 256.75 233.05 L 246.00 233.00 L 246.00 254.00 C246.00,265.55 246.35,275.00 246.77,275.00 C247.19,275.00 251.35,278.36 256.02,282.47 L 264.50 289.93 L 265.13 285.72 C265.47,283.40 265.52,278.24 265.23,274.25 C264.87,269.17 265.05,267.00 265.86,267.00 C266.49,267.00 267.00,267.37 267.00,267.81 C267.00,268.26 267.79,269.50 268.75,270.56 C269.71,271.63 279.50,286.11 290.50,302.74 L 310.50 332.97 L 320.10 332.99 L 329.70 333.00 L 330.26 317.00 ZM 239.41 248.53 C242.37,243.38 243.08,241.34 242.32,240.11 C240.98,237.94 228.97,231.91 226.65,232.24 C224.33,232.57 222.03,238.88 222.02,245.00 C222.01,249.45 222.07,249.53 227.75,252.62 C230.91,254.33 233.95,255.64 234.50,255.53 C235.05,255.42 237.26,252.27 239.41,248.53 Z" fill="rgb(254,254,254)"/>
</g>
</svg>